<svg id="Layer_1" data-name="Layer 1" xmlns="http://www.w3.org/2000/svg" viewBox="0 0 4932.01 1157.66"><defs><style>.cls-1{fill:#a2dfff;}.cls-2{fill:#e0f4fc;}</style></defs><title>charthorizontal</title><path class="cls-1" d="M2218.81,983h-30a10,10,0,0,0,0,20h30a10,10,0,0,0,0-20Z" transform="translate(-538.79 -610.01)"/><path class="cls-1" d="M2141.81,983h-30a10,10,0,0,0,0,20h30a10,10,0,0,0,0-20Z" transform="translate(-538.79 -610.01)"/><path class="cls-1" d="M2295.81,983h-30a10,10,0,0,0,0,20h30a10,10,0,0,0,0-20Z" transform="translate(-538.79 -610.01)"/><path class="cls-1" d="M2064.81,983h-30a10,10,0,0,0,0,20h30a10,10,0,0,0,0-20Z" transform="translate(-538.79 -610.01)"/><path class="cls-1" d="M1910.81,983h-30a10,10,0,0,0,0,20h30a10,10,0,0,0,0-20Z" transform="translate(-538.79 -610.01)"/><path class="cls-1" d="M1987.81,983h-30a10,10,0,0,0,0,20h30a10,10,0,0,0,0-20Z" transform="translate(-538.79 -610.01)"/><path class="cls-1" d="M2372.81,983h-30a10,10,0,0,0,0,20h30a10,10,0,0,0,0-20Z" transform="translate(-538.79 -610.01)"/><path class="cls-1" d="M1833.81,983h-30a10,10,0,0,0,0,20h30a10,10,0,0,0,0-20Z" transform="translate(-538.79 -610.01)"/><path class="cls-1" d="M2757.81,983h-30a10,10,0,0,0,0,20h30a10,10,0,0,0,0-20Z" transform="translate(-538.79 -610.01)"/><path class="cls-1" d="M2834.81,983h-30a10,10,0,0,0,0,20h30a10,10,0,0,0,0-20Z" transform="translate(-538.79 -610.01)"/><path class="cls-1" d="M2449.81,983h-30a10,10,0,0,0,0,20h30a10,10,0,0,0,0-20Z" transform="translate(-538.79 -610.01)"/><path class="cls-1" d="M2911.81,983h-30a10,10,0,0,0,0,20h30a10,10,0,0,0,0-20Z" transform="translate(-538.79 -610.01)"/><path class="cls-1" d="M2526.81,983h-30a10,10,0,0,0,0,20h30a10,10,0,0,0,0-20Z" transform="translate(-538.79 -610.01)"/><path class="cls-1" d="M2603.81,983h-30a10,10,0,0,0,0,20h30a10,10,0,0,0,0-20Z" transform="translate(-538.79 -610.01)"/><path class="cls-1" d="M2680.81,983h-30a10,10,0,0,0,0,20h30a10,10,0,0,0,0-20Z" transform="translate(-538.79 -610.01)"/><path class="cls-1" d="M1448.81,983h-30a10,10,0,0,0,0,20h30a10,10,0,0,0,0-20Z" transform="translate(-538.79 -610.01)"/><path class="cls-1" d="M986.81,983h-30a10,10,0,0,0,0,20h30a10,10,0,0,0,0-20Z" transform="translate(-538.79 -610.01)"/><path class="cls-1" d="M909.81,983h-30a10,10,0,0,0,0,20h30a10,10,0,0,0,0-20Z" transform="translate(-538.79 -610.01)"/><path class="cls-1" d="M1140.81,983h-30a10,10,0,0,0,0,20h30a10,10,0,0,0,0-20Z" transform="translate(-538.79 -610.01)"/><path class="cls-1" d="M832.81,983h-30a10,10,0,0,0,0,20h30a10,10,0,0,0,0-20Z" transform="translate(-538.79 -610.01)"/><path class="cls-1" d="M1063.81,983h-30a10,10,0,0,0,0,20h30a10,10,0,0,0,0-20Z" transform="translate(-538.79 -610.01)"/><path class="cls-1" d="M755.81,983h-30a10,10,0,0,0,0,20h30a10,10,0,0,0,0-20Z" transform="translate(-538.79 -610.01)"/><path class="cls-1" d="M601.81,983h-30a10,10,0,0,0,0,20h30a10,10,0,0,0,0-20Z" transform="translate(-538.79 -610.01)"/><path class="cls-1" d="M678.81,983h-30a10,10,0,0,0,0,20h30a10,10,0,0,0,0-20Z" transform="translate(-538.79 -610.01)"/><path class="cls-1" d="M1294.81,983h-30a10,10,0,0,0,0,20h30a10,10,0,0,0,0-20Z" transform="translate(-538.79 -610.01)"/><path class="cls-1" d="M1602.81,983h-30a10,10,0,0,0,0,20h30a10,10,0,0,0,0-20Z" transform="translate(-538.79 -610.01)"/><path class="cls-1" d="M1217.81,983h-30a10,10,0,0,0,0,20h30a10,10,0,0,0,0-20Z" transform="translate(-538.79 -610.01)"/><path class="cls-1" d="M1525.81,983h-30a10,10,0,0,0,0,20h30a10,10,0,0,0,0-20Z" transform="translate(-538.79 -610.01)"/><path class="cls-1" d="M1679.81,983h-30a10,10,0,0,0,0,20h30a10,10,0,0,0,0-20Z" transform="translate(-538.79 -610.01)"/><path class="cls-1" d="M2988.81,983h-30a10,10,0,0,0,0,20h30a10,10,0,0,0,0-20Z" transform="translate(-538.79 -610.01)"/><path class="cls-1" d="M1756.81,983h-30a10,10,0,0,0,0,20h30a10,10,0,0,0,0-20Z" transform="translate(-538.79 -610.01)"/><path class="cls-1" d="M1371.81,983h-30a10,10,0,0,0,0,20h30a10,10,0,0,0,0-20Z" transform="translate(-538.79 -610.01)"/><path class="cls-1" d="M3835.81,983h-30a10,10,0,0,0,0,20h30a10,10,0,1,0,0-20Z" transform="translate(-538.79 -610.01)"/><path class="cls-1" d="M4374.81,983h-30a10,10,0,0,0,0,20h30a10,10,0,0,0,0-20Z" transform="translate(-538.79 -610.01)"/><path class="cls-1" d="M4836.81,983h-30a10,10,0,0,0,0,20h30a10,10,0,0,0,0-20Z" transform="translate(-538.79 -610.01)"/><path class="cls-1" d="M4682.81,983h-30a10,10,0,0,0,0,20h30a10,10,0,0,0,0-20Z" transform="translate(-538.79 -610.01)"/><path class="cls-1" d="M4913.81,983h-30a10,10,0,0,0,0,20h30a10,10,0,0,0,0-20Z" transform="translate(-538.79 -610.01)"/><path class="cls-1" d="M4451.81,983h-30a10,10,0,0,0,0,20h30a10,10,0,0,0,0-20Z" transform="translate(-538.79 -610.01)"/><path class="cls-1" d="M4528.81,983h-30a10,10,0,0,0,0,20h30a10,10,0,0,0,0-20Z" transform="translate(-538.79 -610.01)"/><path class="cls-1" d="M4605.81,983h-30a10,10,0,0,0,0,20h30a10,10,0,0,0,0-20Z" transform="translate(-538.79 -610.01)"/><path class="cls-1" d="M4759.81,983h-30a10,10,0,0,0,0,20h30a10,10,0,0,0,0-20Z" transform="translate(-538.79 -610.01)"/><path class="cls-1" d="M4990.81,983h-30a10,10,0,0,0,0,20h30a10,10,0,0,0,0-20Z" transform="translate(-538.79 -610.01)"/><path class="cls-1" d="M5298.81,983h-30a10,10,0,0,0,0,20h30a10,10,0,0,0,0-20Z" transform="translate(-538.79 -610.01)"/><path class="cls-1" d="M5452.81,983h-30a10,10,0,0,0,0,20h30a10,10,0,0,0,0-20Z" transform="translate(-538.79 -610.01)"/><path class="cls-1" d="M5375.81,983h-30a10,10,0,0,0,0,20h30a10,10,0,0,0,0-20Z" transform="translate(-538.79 -610.01)"/><path class="cls-1" d="M5067.81,983h-30a10,10,0,0,0,0,20h30a10,10,0,0,0,0-20Z" transform="translate(-538.79 -610.01)"/><path class="cls-1" d="M5221.81,983h-30a10,10,0,0,0,0,20h30a10,10,0,0,0,0-20Z" transform="translate(-538.79 -610.01)"/><path class="cls-1" d="M5144.81,983h-30a10,10,0,0,0,0,20h30a10,10,0,0,0,0-20Z" transform="translate(-538.79 -610.01)"/><path class="cls-1" d="M3296.81,983h-30a10,10,0,0,0,0,20h30a10,10,0,1,0,0-20Z" transform="translate(-538.79 -610.01)"/><path class="cls-1" d="M3450.81,983h-30a10,10,0,0,0,0,20h30a10,10,0,1,0,0-20Z" transform="translate(-538.79 -610.01)"/><path class="cls-1" d="M3373.81,983h-30a10,10,0,0,0,0,20h30a10,10,0,1,0,0-20Z" transform="translate(-538.79 -610.01)"/><path class="cls-1" d="M3604.81,983h-30a10,10,0,0,0,0,20h30a10,10,0,1,0,0-20Z" transform="translate(-538.79 -610.01)"/><path class="cls-1" d="M3527.81,983h-30a10,10,0,0,0,0,20h30a10,10,0,1,0,0-20Z" transform="translate(-538.79 -610.01)"/><path class="cls-1" d="M3065.81,983h-30a10,10,0,0,0,0,20h30a10,10,0,0,0,0-20Z" transform="translate(-538.79 -610.01)"/><path class="cls-1" d="M4297.81,983h-30a10,10,0,0,0,0,20h30a10,10,0,0,0,0-20Z" transform="translate(-538.79 -610.01)"/><path class="cls-1" d="M3219.81,983h-30a10,10,0,0,0,0,20h30a10,10,0,1,0,0-20Z" transform="translate(-538.79 -610.01)"/><path class="cls-1" d="M3142.81,983h-30a10,10,0,0,0,0,20h30a10,10,0,1,0,0-20Z" transform="translate(-538.79 -610.01)"/><path class="cls-1" d="M4143.81,983h-30a10,10,0,0,0,0,20h30a10,10,0,0,0,0-20Z" transform="translate(-538.79 -610.01)"/><path class="cls-1" d="M4220.81,983h-30a10,10,0,0,0,0,20h30a10,10,0,0,0,0-20Z" transform="translate(-538.79 -610.01)"/><path class="cls-1" d="M3681.81,983h-30a10,10,0,0,0,0,20h30a10,10,0,1,0,0-20Z" transform="translate(-538.79 -610.01)"/><path class="cls-1" d="M4066.81,983h-30a10,10,0,0,0,0,20h30a10,10,0,1,0,0-20Z" transform="translate(-538.79 -610.01)"/><path class="cls-1" d="M3989.81,983h-30a10,10,0,0,0,0,20h30a10,10,0,1,0,0-20Z" transform="translate(-538.79 -610.01)"/><path class="cls-1" d="M3758.81,983h-30a10,10,0,0,0,0,20h30a10,10,0,1,0,0-20Z" transform="translate(-538.79 -610.01)"/><path class="cls-1" d="M3912.81,983h-30a10,10,0,0,0,0,20h30a10,10,0,1,0,0-20Z" transform="translate(-538.79 -610.01)"/><path class="cls-1" d="M2380.81,1660.42h-30a10,10,0,0,0,0,20h30a10,10,0,0,0,0-20Z" transform="translate(-538.79 -610.01)"/><path class="cls-1" d="M2072.81,1660.42h-30a10,10,0,0,0,0,20h30a10,10,0,0,0,0-20Z" transform="translate(-538.79 -610.01)"/><path class="cls-1" d="M2226.81,1660.42h-30a10,10,0,0,0,0,20h30a10,10,0,0,0,0-20Z" transform="translate(-538.79 -610.01)"/><path class="cls-1" d="M2303.81,1660.42h-30a10,10,0,0,0,0,20h30a10,10,0,0,0,0-20Z" transform="translate(-538.79 -610.01)"/><path class="cls-1" d="M1764.81,1660.42h-30a10,10,0,0,0,0,20h30a10,10,0,0,0,0-20Z" transform="translate(-538.79 -610.01)"/><path class="cls-1" d="M1995.81,1660.42h-30a10,10,0,0,0,0,20h30a10,10,0,0,0,0-20Z" transform="translate(-538.79 -610.01)"/><path class="cls-1" d="M1841.81,1660.42h-30a10,10,0,0,0,0,20h30a10,10,0,0,0,0-20Z" transform="translate(-538.79 -610.01)"/><path class="cls-1" d="M1918.81,1660.42h-30a10,10,0,0,0,0,20h30a10,10,0,0,0,0-20Z" transform="translate(-538.79 -610.01)"/><path class="cls-1" d="M2149.81,1660.42h-30a10,10,0,0,0,0,20h30a10,10,0,0,0,0-20Z" transform="translate(-538.79 -610.01)"/><path class="cls-1" d="M2765.81,1660.42h-30a10,10,0,1,0,0,20h30a10,10,0,0,0,0-20Z" transform="translate(-538.79 -610.01)"/><path class="cls-1" d="M2457.81,1660.42h-30a10,10,0,1,0,0,20h30a10,10,0,0,0,0-20Z" transform="translate(-538.79 -610.01)"/><path class="cls-1" d="M2919.81,1660.42h-30a10,10,0,1,0,0,20h30a10,10,0,0,0,0-20Z" transform="translate(-538.79 -610.01)"/><path class="cls-1" d="M2996.81,1660.42h-30a10,10,0,1,0,0,20h30a10,10,0,0,0,0-20Z" transform="translate(-538.79 -610.01)"/><path class="cls-1" d="M2534.81,1660.42h-30a10,10,0,1,0,0,20h30a10,10,0,0,0,0-20Z" transform="translate(-538.79 -610.01)"/><path class="cls-1" d="M2688.81,1660.42h-30a10,10,0,1,0,0,20h30a10,10,0,0,0,0-20Z" transform="translate(-538.79 -610.01)"/><path class="cls-1" d="M2611.81,1660.42h-30a10,10,0,1,0,0,20h30a10,10,0,0,0,0-20Z" transform="translate(-538.79 -610.01)"/><path class="cls-1" d="M2842.81,1660.42h-30a10,10,0,1,0,0,20h30a10,10,0,0,0,0-20Z" transform="translate(-538.79 -610.01)"/><path class="cls-1" d="M917.81,1660.42h-30a10,10,0,0,0,0,20h30a10,10,0,0,0,0-20Z" transform="translate(-538.79 -610.01)"/><path class="cls-1" d="M994.81,1660.42h-30a10,10,0,0,0,0,20h30a10,10,0,0,0,0-20Z" transform="translate(-538.79 -610.01)"/><path class="cls-1" d="M1687.81,1660.42h-30a10,10,0,0,0,0,20h30a10,10,0,0,0,0-20Z" transform="translate(-538.79 -610.01)"/><path class="cls-1" d="M763.81,1660.42h-30a10,10,0,0,0,0,20h30a10,10,0,0,0,0-20Z" transform="translate(-538.79 -610.01)"/><path class="cls-1" d="M1071.81,1660.42h-30a10,10,0,0,0,0,20h30a10,10,0,0,0,0-20Z" transform="translate(-538.79 -610.01)"/><path class="cls-1" d="M609.81,1660.42h-30a10,10,0,0,0,0,20h30a10,10,0,0,0,0-20Z" transform="translate(-538.79 -610.01)"/><path class="cls-1" d="M686.81,1660.42h-30a10,10,0,0,0,0,20h30a10,10,0,0,0,0-20Z" transform="translate(-538.79 -610.01)"/><path class="cls-1" d="M840.81,1660.42h-30a10,10,0,0,0,0,20h30a10,10,0,0,0,0-20Z" transform="translate(-538.79 -610.01)"/><path class="cls-1" d="M1533.81,1660.42h-30a10,10,0,0,0,0,20h30a10,10,0,0,0,0-20Z" transform="translate(-538.79 -610.01)"/><path class="cls-1" d="M1610.81,1660.42h-30a10,10,0,0,0,0,20h30a10,10,0,0,0,0-20Z" transform="translate(-538.79 -610.01)"/><path class="cls-1" d="M1456.81,1660.42h-30a10,10,0,0,0,0,20h30a10,10,0,0,0,0-20Z" transform="translate(-538.79 -610.01)"/><path class="cls-1" d="M1225.81,1660.42h-30a10,10,0,0,0,0,20h30a10,10,0,0,0,0-20Z" transform="translate(-538.79 -610.01)"/><path class="cls-1" d="M1148.81,1660.42h-30a10,10,0,0,0,0,20h30a10,10,0,0,0,0-20Z" transform="translate(-538.79 -610.01)"/><path class="cls-1" d="M1302.81,1660.42h-30a10,10,0,0,0,0,20h30a10,10,0,0,0,0-20Z" transform="translate(-538.79 -610.01)"/><path class="cls-1" d="M1379.81,1660.42h-30a10,10,0,0,0,0,20h30a10,10,0,0,0,0-20Z" transform="translate(-538.79 -610.01)"/><path class="cls-1" d="M5306.8,1660.42h-30a10,10,0,0,0,0,20h30a10,10,0,0,0,0-20Z" transform="translate(-538.79 -610.01)"/><path class="cls-1" d="M4690.81,1660.42h-30a10,10,0,0,0,0,20h30a10,10,0,0,0,0-20Z" transform="translate(-538.79 -610.01)"/><path class="cls-1" d="M4613.81,1660.42h-30a10,10,0,0,0,0,20h30a10,10,0,0,0,0-20Z" transform="translate(-538.79 -610.01)"/><path class="cls-1" d="M4767.81,1660.42h-30a10,10,0,0,0,0,20h30a10,10,0,0,0,0-20Z" transform="translate(-538.79 -610.01)"/><path class="cls-1" d="M4844.8,1660.42h-30a10,10,0,0,0,0,20h30a10,10,0,0,0,0-20Z" transform="translate(-538.79 -610.01)"/><path class="cls-1" d="M4382.81,1660.42h-30a10,10,0,0,0,0,20h30a10,10,0,0,0,0-20Z" transform="translate(-538.79 -610.01)"/><path class="cls-1" d="M4536.81,1660.42h-30a10,10,0,0,0,0,20h30a10,10,0,0,0,0-20Z" transform="translate(-538.79 -610.01)"/><path class="cls-1" d="M3073.81,1660.42h-30a10,10,0,1,0,0,20h30a10,10,0,0,0,0-20Z" transform="translate(-538.79 -610.01)"/><path class="cls-1" d="M5075.8,1660.42h-30a10,10,0,0,0,0,20h30a10,10,0,0,0,0-20Z" transform="translate(-538.79 -610.01)"/><path class="cls-1" d="M5383.8,1660.42h-30a10,10,0,0,0,0,20h30a10,10,0,0,0,0-20Z" transform="translate(-538.79 -610.01)"/><path class="cls-1" d="M5229.8,1660.42h-30a10,10,0,0,0,0,20h30a10,10,0,0,0,0-20Z" transform="translate(-538.79 -610.01)"/><path class="cls-1" d="M5460.8,1660.42h-30a10,10,0,0,0,0,20h30a10,10,0,0,0,0-20Z" transform="translate(-538.79 -610.01)"/><path class="cls-1" d="M5152.8,1660.42h-30a10,10,0,0,0,0,20h30a10,10,0,0,0,0-20Z" transform="translate(-538.79 -610.01)"/><path class="cls-1" d="M4998.8,1660.42h-30a10,10,0,0,0,0,20h30a10,10,0,0,0,0-20Z" transform="translate(-538.79 -610.01)"/><path class="cls-1" d="M4921.8,1660.42h-30a10,10,0,0,0,0,20h30a10,10,0,0,0,0-20Z" transform="translate(-538.79 -610.01)"/><path class="cls-1" d="M4305.81,1660.42h-30a10,10,0,0,0,0,20h30a10,10,0,0,0,0-20Z" transform="translate(-538.79 -610.01)"/><path class="cls-1" d="M4459.81,1660.42h-30a10,10,0,0,0,0,20h30a10,10,0,0,0,0-20Z" transform="translate(-538.79 -610.01)"/><path class="cls-1" d="M3458.81,1660.42h-30a10,10,0,1,0,0,20h30a10,10,0,0,0,0-20Z" transform="translate(-538.79 -610.01)"/><path class="cls-1" d="M3535.81,1660.42h-30a10,10,0,1,0,0,20h30a10,10,0,0,0,0-20Z" transform="translate(-538.79 -610.01)"/><path class="cls-1" d="M3381.81,1660.42h-30a10,10,0,1,0,0,20h30a10,10,0,0,0,0-20Z" transform="translate(-538.79 -610.01)"/><path class="cls-1" d="M3150.81,1660.42h-30a10,10,0,1,0,0,20h30a10,10,0,0,0,0-20Z" transform="translate(-538.79 -610.01)"/><path class="cls-1" d="M3304.81,1660.42h-30a10,10,0,1,0,0,20h30a10,10,0,0,0,0-20Z" transform="translate(-538.79 -610.01)"/><path class="cls-1" d="M3612.81,1660.42h-30a10,10,0,1,0,0,20h30a10,10,0,0,0,0-20Z" transform="translate(-538.79 -610.01)"/><path class="cls-1" d="M4228.81,1660.42h-30a10,10,0,0,0,0,20h30a10,10,0,0,0,0-20Z" transform="translate(-538.79 -610.01)"/><path class="cls-1" d="M3227.81,1660.42h-30a10,10,0,1,0,0,20h30a10,10,0,0,0,0-20Z" transform="translate(-538.79 -610.01)"/><path class="cls-1" d="M3689.81,1660.42h-30a10,10,0,1,0,0,20h30a10,10,0,0,0,0-20Z" transform="translate(-538.79 -610.01)"/><path class="cls-1" d="M4151.81,1660.42h-30a10,10,0,0,0,0,20h30a10,10,0,0,0,0-20Z" transform="translate(-538.79 -610.01)"/><path class="cls-1" d="M3997.81,1660.42h-30a10,10,0,1,0,0,20h30a10,10,0,0,0,0-20Z" transform="translate(-538.79 -610.01)"/><path class="cls-1" d="M4074.81,1660.42h-30a10,10,0,1,0,0,20h30a10,10,0,0,0,0-20Z" transform="translate(-538.79 -610.01)"/><path class="cls-1" d="M3766.81,1660.42h-30a10,10,0,1,0,0,20h30a10,10,0,0,0,0-20Z" transform="translate(-538.79 -610.01)"/><path class="cls-1" d="M3920.81,1660.42h-30a10,10,0,1,0,0,20h30a10,10,0,0,0,0-20Z" transform="translate(-538.79 -610.01)"/><path class="cls-1" d="M3843.81,1660.42h-30a10,10,0,1,0,0,20h30a10,10,0,0,0,0-20Z" transform="translate(-538.79 -610.01)"/><path class="cls-1" d="M1339.84,974.31a10,10,0,0,0-14.12.91L953,1399.58,581.06,1505.13a10,10,0,1,0,5.46,19.24L961.24,1418a9.91,9.91,0,0,0,4.79-3l374.72-426.57A10,10,0,0,0,1339.84,974.31Z" transform="translate(-538.79 -610.01)"/><path class="cls-1" d="M3949.71,963.84l-370,324.88-369-154.72a10,10,0,0,0-7.42-.13l-374.72,142.41a10,10,0,0,0-4,2.75L2452.78,1703l-366.27,9.6L1715,1366.25,1340.46,974.91A10,10,0,1,0,1326,988.73l374.73,391.56.4.4L2075.87,1730a10,10,0,0,0,6.81,2.69h.27l374.72-9.82a10,10,0,0,0,7.26-3.4L2838,1294.09,3206.67,1154l371,155.59a10,10,0,0,0,10.47-1.71l374.72-329a10,10,0,1,0-13.19-15Z" transform="translate(-538.79 -610.01)"/><path class="cls-1" d="M5243.45,610.93a10,10,0,0,0-13.27,4.9L5073.1,956.72,4697.74,1100.2a10,10,0,0,0-2.36,1.29l-363,267.57L3963.7,964.62a10,10,0,1,0-14.78,13.47l374.72,411.1a10,10,0,0,0,13.32,1.32l369.19-272.11,377.9-144.46a10,10,0,0,0,5.51-5.15L5248.34,624.2A10,10,0,0,0,5243.45,610.93Z" transform="translate(-538.79 -610.01)"/><circle class="cls-2" cx="45" cy="904.74" r="35"/><path class="cls-1" d="M583.79,1469.75a45,45,0,1,0,45,45A45,45,0,0,0,583.79,1469.75Zm0,70a25,25,0,1,1,25-25A25,25,0,0,1,583.79,1539.75Z" transform="translate(-538.79 -610.01)"/><circle class="cls-2" cx="419.72" cy="798.38" r="35"/><path class="cls-1" d="M958.51,1363.39a45,45,0,1,0,45,45A45.05,45.05,0,0,0,958.51,1363.39Zm0,70a25,25,0,1,1,25-25A25,25,0,0,1,958.51,1433.39Z" transform="translate(-538.79 -610.01)"/><circle class="cls-2" cx="794.45" cy="371.81" r="35"/><path class="cls-1" d="M1333.24,936.82a45,45,0,1,0,45,45A45,45,0,0,0,1333.24,936.82Zm0,70a25,25,0,1,1,25-25A25,25,0,0,1,1333.24,1006.82Z" transform="translate(-538.79 -610.01)"/><circle class="cls-2" cx="1169.17" cy="763.36" r="35"/><path class="cls-1" d="M1708,1328.37a45,45,0,1,0,45,45A45.05,45.05,0,0,0,1708,1328.37Zm0,70a25,25,0,1,1,25-25A25,25,0,0,1,1708,1398.37Z" transform="translate(-538.79 -610.01)"/><circle class="cls-2" cx="1543.9" cy="1112.66" r="35"/><path class="cls-1" d="M2082.69,1677.67a45,45,0,1,0,45,45A45,45,0,0,0,2082.69,1677.67Zm0,70a25,25,0,1,1,25-25A25,25,0,0,1,2082.69,1747.67Z" transform="translate(-538.79 -610.01)"/><circle class="cls-2" cx="1918.62" cy="1102.84" r="35"/><path class="cls-1" d="M2457.41,1667.85a45,45,0,1,0,45,45A45,45,0,0,0,2457.41,1667.85Zm0,70a25,25,0,1,1,25-25A25,25,0,0,1,2457.41,1737.85Z" transform="translate(-538.79 -610.01)"/><circle class="cls-2" cx="2293.34" cy="675.62" r="35"/><path class="cls-1" d="M2832.13,1240.63a45,45,0,1,0,45,45A45,45,0,0,0,2832.13,1240.63Zm0,70a25,25,0,1,1,25-25A25,25,0,0,1,2832.13,1310.63Z" transform="translate(-538.79 -610.01)"/><circle class="cls-2" cx="2668.07" cy="533.21" r="35"/><path class="cls-1" d="M3206.86,1098.22a45,45,0,1,0,45,45A45,45,0,0,0,3206.86,1098.22Zm0,70a25,25,0,1,1,25-25A25,25,0,0,1,3206.86,1168.22Z" transform="translate(-538.79 -610.01)"/><circle class="cls-2" cx="3042.79" cy="690.35" r="35"/><path class="cls-1" d="M3581.58,1255.36a45,45,0,1,0,45,45A45.05,45.05,0,0,0,3581.58,1255.36Zm0,70a25,25,0,1,1,25-25A25,25,0,0,1,3581.58,1325.36Z" transform="translate(-538.79 -610.01)"/><circle class="cls-2" cx="3417.52" cy="361.34" r="35"/><path class="cls-1" d="M3956.31,926.35a45,45,0,1,0,45,45A45,45,0,0,0,3956.31,926.35Zm0,70a25,25,0,1,1,25-25A25,25,0,0,1,3956.31,996.35Z" transform="translate(-538.79 -610.01)"/><circle class="cls-2" cx="3792.24" cy="772.45" r="35"/><path class="cls-1" d="M4331,1337.46a45,45,0,1,0,45,45A45,45,0,0,0,4331,1337.46Zm0,70a25,25,0,1,1,25-25A25,25,0,0,1,4331,1407.46Z" transform="translate(-538.79 -610.01)"/><circle class="cls-2" cx="4166.96" cy="508.65" r="35"/><path class="cls-1" d="M4705.75,1073.66a45,45,0,1,0,45,45A45.05,45.05,0,0,0,4705.75,1073.66Zm0,70a25,25,0,1,1,25-25A25,25,0,0,1,4705.75,1143.66Z" transform="translate(-538.79 -610.01)"/><circle class="cls-2" cx="4540.52" cy="359.54" r="35"/><path class="cls-1" d="M5079.31,924.54a45,45,0,1,0,45,45A45.05,45.05,0,0,0,5079.31,924.54Zm0,70a25,25,0,1,1,25-25A25,25,0,0,1,5079.31,994.54Z" transform="translate(-538.79 -610.01)"/><path class="cls-1" d="M5243.3,610.86a10,10,0,0,0-10.42,1.45l-65.83,54.59a10,10,0,0,0,12.76,15.4l50.41-41.8,3.09,65.41a10,10,0,0,0,10,9.53l.48,0a10,10,0,0,0,9.52-10.46l-4-85.42A10,10,0,0,0,5243.3,610.86Z" transform="translate(-538.79 -610.01)"/></svg>