<svg xmlns="http://www.w3.org/2000/svg" viewBox="0 0 140.906 159.554"><defs><style>.a{fill:#a3d7f1;}.b{fill:#58b7e6;}</style></defs><g transform="translate(15.946 2.659)"><path class="a" d="M145.669,196.665a50.515,50.515,0,1,0-47.142,32.367c.18,0,.357-.023.532-.026l-.106-10.571.106,10.571a50.185,50.185,0,0,0,34.031-13.694V202.444A45.775,45.775,0,0,0,145.669,196.665ZM98.528,210.421a31.9,31.9,0,1,1,31.9-31.9A31.9,31.9,0,0,1,98.528,210.421Zm0,0" transform="translate(-48.012 -88.119)"/><path class="a" d="M175.869,21.294V10.659A2.659,2.659,0,0,0,173.21,8H130.67a2.659,2.659,0,0,0-2.659,2.659V21.294a2.659,2.659,0,0,0,2.659,2.659h42.54A2.659,2.659,0,0,0,175.869,21.294Zm0,0" transform="translate(-101.424 -8)"/><path class="a" d="M175.869,231.929A23.929,23.929,0,1,1,151.94,208,23.928,23.928,0,0,1,175.869,231.929Zm0,0" transform="translate(-101.424 -141.532)"/><path class="a" d="M330.333,325.9c-.571-.341-1.145-.679-1.728-1.065A37.921,37.921,0,0,1,322.623,320a35.477,35.477,0,0,1-4.838,4.041c-.4.282-.8.55-1.194.814a45.777,45.777,0,0,1-12.578,5.78v18.372a15.845,15.845,0,0,0,2.686,8.827,15.144,15.144,0,0,0,3.988,4.148l11.937,8.534,11.938-8.534a15.951,15.951,0,0,0,6.673-12.974V330.635a46.226,46.226,0,0,1-10.9-4.735Zm0,0" transform="translate(-218.932 -216.309)"/></g><path class="b" d="M130.575,176a34.564,34.564,0,1,0,34.564,34.564A34.564,34.564,0,0,0,130.575,176Zm0,63.81a29.246,29.246,0,1,1,29.246-29.246A29.246,29.246,0,0,1,130.575,239.81Zm0,0" transform="translate(-64.114 -117.508)"/><path class="b" d="M146.6,200a26.587,26.587,0,1,0,26.587,26.587A26.587,26.587,0,0,0,146.6,200Zm0,47.857a21.27,21.27,0,1,1,21.27-21.27A21.27,21.27,0,0,1,146.6,247.857Zm0,0" transform="translate(-80.137 -133.532)"/><path class="b" d="M183.964,235.148V232h-5.317v2.659h-2.659V232H170.67v2.659a2.659,2.659,0,0,0-2.659,2.659v21.27a2.659,2.659,0,0,0,2.659,2.659V263.9h5.317v-2.659h2.659V263.9h5.317v-3.148a7.9,7.9,0,0,0,3.244-12.8,7.9,7.9,0,0,0-3.244-12.8Zm-10.635,4.828h7.976a2.659,2.659,0,1,1,0,5.317h-7.976Zm7.976,15.952h-7.976v-5.317h7.976a2.659,2.659,0,1,1,0,5.317Zm0,0" transform="translate(-112.185 -154.897)"/><path class="b" d="M138.928,114.4a43.231,43.231,0,0,1-8.442-3.456,66.091,66.091,0,0,0-7.535-52.909l8.224-8.227a5.336,5.336,0,0,0,0-7.532L119.934,31.032a5.339,5.339,0,0,0-7.535,0l-7.71,7.71a66.047,66.047,0,0,0-24.9-10.77v-6.7h7.976a5.318,5.318,0,0,0,5.317-5.317V5.317A5.318,5.318,0,0,0,87.763,0H45.224a5.318,5.318,0,0,0-5.317,5.317V15.952a5.318,5.318,0,0,0,5.317,5.317H53.2v6.716A66.455,66.455,0,0,0,66.435,159.554h.723a65.938,65.938,0,0,0,36.406-11.332,17.7,17.7,0,0,0,2.62,2.276l11.937,8.532a2.66,2.66,0,0,0,3.095,0l11.936-8.545a18.628,18.628,0,0,0,7.787-15.128V116.984A2.661,2.661,0,0,0,138.928,114.4Zm-22.761-79.61,11.246,11.263-7.519,7.518a67.127,67.127,0,0,0-10.943-11.568ZM45.224,5.317h42.54V15.952H45.224ZM58.517,21.27H74.47v5.85a65.715,65.715,0,0,0-15.952,0ZM67.1,154.232A61.226,61.226,0,1,1,125.784,108a34.6,34.6,0,0,1-4.233-3.529,2.717,2.717,0,0,0-3.057-.452,53.265,53.265,0,1,0-20.079,31.509,18.413,18.413,0,0,0,2.1,8.34A60.6,60.6,0,0,1,67.1,154.232ZM100.408,114.4a2.661,2.661,0,0,0-2.01,2.58v11.648a47.375,47.375,0,0,1-28.736,12.132l-.079-7.814L64.266,133l.077,7.8a47.838,47.838,0,0,1-45.57-45.089h7.84V90.4h-7.84A47.841,47.841,0,0,1,63.835,45.333v7.841h5.317V45.333A47.842,47.842,0,0,1,114.216,90.4h-7.841v5.317h7.854a47.32,47.32,0,0,1-2.8,13.732A43.894,43.894,0,0,1,100.408,114.4Zm35.213,20.952a13.311,13.311,0,0,1-5.559,10.813L119.668,153.6l-10.406-7.444a12.579,12.579,0,0,1-3.309-3.457,13.164,13.164,0,0,1-2.237-7.34v-16.4a49.548,49.548,0,0,0,12.629-6.382,37.459,37.459,0,0,0,3.323-2.591,41.787,41.787,0,0,0,4.52,3.423,50.129,50.129,0,0,0,11.432,5.55Zm0,0" transform="translate(-0.032)"/></svg>