<svg xmlns="http://www.w3.org/2000/svg" viewBox="0 0 191.015 159.179"><defs><style>.a{fill:#a3d7f1;}.b{fill:#58b7e6;}</style></defs><path class="a" d="M250.609,8H155.1A19.1,19.1,0,0,0,136,27.1V43.019h63.672a19.1,19.1,0,0,1,19.1,19.1V97.14h11.844A3.182,3.182,0,0,1,233.1,98.35l14.326,17.892V100.324a3.184,3.184,0,0,1,3.184-3.184,19.13,19.13,0,0,0,19.1-19.1V27.1A19.1,19.1,0,0,0,250.609,8Zm0,0" transform="translate(-81.879 -4.816)"/><path class="a" d="M122.609,96H27.1A19.1,19.1,0,0,0,8,115.1v50.937a19.1,19.1,0,0,0,19.1,19.1H45.939a6.368,6.368,0,0,1,5.878,3.919l10.3,24.733,10.3-24.733A6.368,6.368,0,0,1,78.3,185.14h44.306a19.1,19.1,0,0,0,19.1-19.1V115.1A19.1,19.1,0,0,0,122.609,96ZM71.672,169.222a28.652,28.652,0,1,1,28.652-28.652A28.652,28.652,0,0,1,71.672,169.222Zm0,0" transform="translate(-4.816 -57.797)"/><path class="b" d="M168.73,0H73.222A22.314,22.314,0,0,0,50.937,22.285V35.019H22.285A22.314,22.314,0,0,0,0,57.3v50.937a22.314,22.314,0,0,0,22.285,22.285H41.122a3.182,3.182,0,0,1,2.938,1.959l10.306,24.735a3.183,3.183,0,0,0,5.876,0l10.306-24.735a3.182,3.182,0,0,1,2.938-1.959h44.306a22.314,22.314,0,0,0,22.285-22.285V95.508h8.66L163.064,113.4a3.183,3.183,0,0,0,5.666-1.974V95.508a22.314,22.314,0,0,0,22.285-22.285V22.285A22.314,22.314,0,0,0,168.73,0ZM133.711,108.242a15.937,15.937,0,0,1-15.918,15.918H73.487a9.526,9.526,0,0,0-8.815,5.878L57.3,147.718l-7.367-17.681a9.526,9.526,0,0,0-8.815-5.878H22.285A15.937,15.937,0,0,1,6.367,108.242V57.3A15.937,15.937,0,0,1,22.285,41.387h95.508A15.937,15.937,0,0,1,133.711,57.3Zm50.937-35.019A15.947,15.947,0,0,1,168.73,89.14a6.368,6.368,0,0,0-6.367,6.367v6.848l-8.649-10.8a6.4,6.4,0,0,0-4.976-2.416h-8.66V57.3a22.314,22.314,0,0,0-22.285-22.285H57.3V22.285A15.937,15.937,0,0,1,73.222,6.367H168.73a15.937,15.937,0,0,1,15.918,15.918Zm0,0"/><path class="b" d="M119.836,128a31.836,31.836,0,1,0,31.836,31.836A31.835,31.835,0,0,0,119.836,128Zm0,57.3A25.469,25.469,0,1,1,145.3,159.836,25.468,25.468,0,0,1,119.836,185.3Zm0,0" transform="translate(-52.981 -77.063)"/><path class="b" d="M155.1,163.77V160h-6.367v3.184h-3.184V160h-6.367v3.184A3.184,3.184,0,0,0,136,166.367v25.469a3.184,3.184,0,0,0,3.184,3.184V198.2h6.367v-3.184h3.184V198.2H155.1v-3.77a9.462,9.462,0,0,0,3.885-15.332A9.462,9.462,0,0,0,155.1,163.77Zm-12.734,5.781h9.551a3.184,3.184,0,0,1,0,6.367h-9.551Zm9.551,19.1h-9.551v-6.367h9.551a3.184,3.184,0,0,1,0,6.367Zm0,0" transform="translate(-81.879 -96.328)"/><path class="b" d="M200,56h82.773v6.367H200Zm0,0" transform="translate(-120.41 -33.715)"/><path class="b" d="M360,104h19.1v6.367H360Zm0,0" transform="translate(-216.739 -62.613)"/><path class="b" d="M360,152h19.1v6.367H360Zm0,0" transform="translate(-216.739 -91.512)"/></svg>