<svg xmlns="http://www.w3.org/2000/svg" viewBox="0 0 180.215 170.472"><defs><style>.a{fill:#bddbff;}.b{fill:#a3d7f1;}.c{fill:#58b7e6;}</style></defs><path class="a" d="M48.183,347.611l-3.5-6.088-14.338-24.78L23.83,305.418,8,314.55l24.353,42.193Zm0,0" transform="translate(-4.955 -189.315)"/><path class="a" d="M417.6,15.485V63.1h18.265V8.3H417.6Zm0,0" transform="translate(-258.696 -5.257)"/><path class="b" d="M214.484,182.742A30.441,30.441,0,1,1,184.043,152.3,30.442,30.442,0,0,1,214.484,182.742Zm0,0" transform="translate(-95.153 -94.462)"/><g transform="translate(0 0)"><path class="c" d="M177.169.3H158.9a3.043,3.043,0,0,0-3.044,3.044V4.867l-.783-.517a6.116,6.116,0,0,0-3.327-1H91.414a9.09,9.09,0,0,0-6.475,2.687L52.307,38.657a9.132,9.132,0,0,0-.04,12.88L56.6,55.9a9.364,9.364,0,0,0,12.92,0l28.2-28.2h36.834a3.044,3.044,0,0,1,3.044,3.044v6.088a3.044,3.044,0,0,1-3.044,3.044H101.065a6.088,6.088,0,0,0-6.088,6.088V55.68a33.094,33.094,0,0,0-6.088-.584,33.434,33.434,0,0,0-22.905,57.839H37.138a3.042,3.042,0,0,0-2.152.892l-8.932,8.929-4.542-7.866a3.042,3.042,0,0,0-4.16-1.121L1.521,122.9a3.043,3.043,0,0,0-1.115,4.157l24.353,42.193a3.045,3.045,0,0,0,4.159,1.113l15.83-9.132a3.043,3.043,0,0,0,1.116-4.154l-.88-1.522h68.78a9.076,9.076,0,0,0,6.457-2.676l32.629-32.64a9.174,9.174,0,0,0,.024-12.929l-4.291-4.322a9.717,9.717,0,0,0-6.469-2.684,9.061,9.061,0,0,0-6.445,2.664L107.457,131.2h-.3V119.022a6.025,6.025,0,0,0-.412-2.152,33.371,33.371,0,0,0,5.051-52.642h29.789a9.214,9.214,0,0,0,5.614-1.922l8.664-6.739V58.14a3.043,3.043,0,0,0,3.044,3.044h18.265a3.044,3.044,0,0,0,3.044-3.044V3.345A3.044,3.044,0,0,0,177.169.3ZM28.511,163.57,7.2,126.651l10.553-6.088,21.309,36.913Zm80.194-26.283a3.045,3.045,0,0,0,2.152-.892l29.117-29.117a2.751,2.751,0,0,1,2.146-.88,2.991,2.991,0,0,1,2.131.889l4.294,4.322a3.078,3.078,0,0,1,0,4.331l-32.629,32.631a3.072,3.072,0,0,1-2.152.892H41.481l-4.04-6.956L29.192,128.2l9.205-9.177h62.668V131.2h-27.4v6.088Zm7.581-48.706a27.419,27.419,0,0,1-15.026,24.371c-.067,0-.128-.018-.195-.018H76.443a27.346,27.346,0,0,1,20.24-50.585,6.059,6.059,0,0,0,4.382,1.879h.268A27.2,27.2,0,0,1,116.286,88.581ZM143.466,57.5a3.068,3.068,0,0,1-1.885.642H101.065V45.963h33.486a9.133,9.133,0,0,0,9.132-9.132V30.742a9.133,9.133,0,0,0-9.132-9.132H97.716a6.084,6.084,0,0,0-4.284,1.775L65.213,51.6a3.133,3.133,0,0,1-4.3,0l-4.331-4.36a3.044,3.044,0,0,1,.031-4.281L89.244,10.346a3.043,3.043,0,0,1,2.17-.913h60.33l4.116,2.739V47.854Zm30.658-2.4H161.948V6.389h12.177Zm0,0" transform="translate(0.002 -0.301)"/><path class="c" d="M219.866,187.905v-3.6h-6.088v3.044h-3.044V184.3h-6.088v3.044a3.043,3.043,0,0,0-3.044,3.044v24.353a3.043,3.043,0,0,0,3.044,3.044v3.044h6.088v-3.044h3.044v3.044h6.088v-3.6a9.047,9.047,0,0,0,3.713-14.66,9.047,9.047,0,0,0-3.713-14.66Zm-12.177,5.528h9.132a3.044,3.044,0,1,1,0,6.088H207.69Zm9.132,18.265H207.69V205.61h9.132a3.044,3.044,0,1,1,0,6.088Zm0,0" transform="translate(-124.888 -114.285)"/></g></svg>